<?xml version="1.0" encoding="UTF-8" standalone="no"?>
<!-- Created with Inkscape (http://www.inkscape.org/) -->

<svg
        xmlns:cc="http://creativecommons.org/ns#"
        xmlns:dc="http://purl.org/dc/elements/1.1/"
        xmlns:inkscape="http://www.inkscape.org/namespaces/inkscape"
        xmlns:rdf="http://www.w3.org/1999/02/22-rdf-syntax-ns#"
        xmlns:sodipodi="http://sodipodi.sourceforge.net/DTD/sodipodi-0.dtd"
        height="200.0"
        id="svg2"
        version="1.1"
        viewBox="0 0 796.92218 742.92108"
        width="200.0"
        xmlns="http://www.w3.org/2000/svg"
        inkscape:export-filename="/home/heider/Pictures/Logos/valknut.png"
        inkscape:export-xdpi="87"
        inkscape:export-ydpi="87"
        inkscape:version="0.92.4 (5da689c313, 2019-01-14)"
        sodipodi:docname="valknut.svg">
    <defs
            id="defs6"/>
    <metadata
            id="metadata8">
        <rdf:RDF>
            <cc:Work
                    rdf:about="">
                <dc:format>image/svg+xml</dc:format>
                <dc:title></dc:title>
                <dc:type
                        rdf:resource="http://purl.org/dc/dcmitype/StillImage"/>
            </cc:Work>
        </rdf:RDF>
    </metadata>
    <path
            style="fill:#000000"
            d="m 779.34938,741.8947 c -96.97973,-1.5463 -194.00453,-0.88325 -290.97345,-2.97519 -97.18015,0.36843 -194.27967,-2.44907 -291.44843,-2.73324 -21.91975,-14.94823 11.0544,-40.04617 16.43666,-58.79157 17.53634,-28.139 32.03552,-57.35099 50.08456,-84.80548 26.35624,-10.58951 7.02511,26.75162 -2.09934,37.30548 -16.37174,28.77341 -33.00933,57.36902 -49,86 50.50484,4.62458 103.17403,0.0501 154.47186,3.69018 86.59167,0.0787 173.1101,1.84268 259.63965,3.28731 48.3313,-0.30541 98.86693,0.48325 145.87328,0.48151 -20.59915,-34.78169 -40.4878,-71.10348 -60.98479,-106.41125 -22.25778,-19.2391 10.88076,-36.63095 16,-8.26851 21.18439,36.67982 41.90735,72.5233 62.5,109.22076 11.59398,11.07009 9.50046,29.58489 -10.5,24 z M 317.81679,638.75963 c -17.3351,-19.41219 15.57591,-16.36687 27.56903,-15.91043 81.88846,-0.53189 163.82766,0.70342 245.67489,-1.58843 -24.02427,-41.34101 -47.63038,-83.88322 -72.21133,-124.36607 -15.55169,-27.68393 -31.75364,-56.00044 -48.5,-83.80455 -20.95562,-27.42082 15.78863,-29.65471 19.43996,-1.92773 16.41717,26.16302 31.60188,54.4692 47.56004,81.23228 25.87098,45.02301 51.96779,89.61422 77.5,134.5 0.14124,29.42668 -56.47232,6.63669 -77.69637,13.91517 -73.08394,-0.85625 -146.37684,1.40348 -219.33622,-2.05024 z M 143.84938,634.8947 c -46.820157,-1.83804 -93.73057,-0.68354 -140.5909,-1 -12.409882,-17.74414 14.210743,-35.22188 20.09091,-52.16174 29.66239,-51.97489 60.60426,-102.60256 90.99999,-154.29281 19.68326,-34.12439 40.19757,-67.37062 59.57433,-101.21235 37.85352,-62.98121 74.85228,-126.417 112.42567,-189.3331 6.85523,-11.21042 16.97253,-42.056372 33,-23.65364 23.41283,42.69656 48.24276,83.61336 72,125.65364 -1.46331,31.98903 -25.87939,-4.47889 -31,-18.10699 -16.52729,-30.26589 -34.60539,-58.34561 -51,-88.89301 -26.90214,48.1629 -55.53503,94.12235 -83,142.08333 -38.46218,63.40748 -76.17281,128.15901 -114.5,192.09533 -17.142845,30.2648 -35.133245,59.48516 -52.999991,90.18297 -11.519344,19.31594 -22.497545,39.04421 -35.005775,57.87069 47.048086,5.28639 97.062576,-3.27963 143.562206,6.01768 8.46074,15.39217 -13.97536,18.27123 -23.55644,14.75 z M 622.79516,531.61909 c -11.65997,-30.99642 51.67933,-10.02773 69.76802,-16.20452 23.12866,-4.02843 89.96204,13.29435 54.7862,-23.65994 -15.68741,-31.79289 -34.80762,-61.03776 -51,-92.85993 -25.7504,-43.73025 -49.45543,-88.49346 -75.14279,-132.23643 -10.31343,-20.14274 -22.98481,-39.56376 -33.17881,-60.08498 -13.90526,-23.87802 -27.3205,-47.95008 -40.6784,-71.81129 -20.0787,-35.373432 -40.01492,-70.962572 -60,-106.867297 -11.07665,6.46591 -16.92562,28.984885 -27,41.072575 -14.65912,26.93284 -30.55067,51.992182 -45.8951,78.580532 -29.15401,0.0256 -3.42769,-27.78486 2.8951,-40.65311 20.5647,-34.989952 41.19574,-69.692654 60.94043,-105.161382 22.21117,-10.528432 24.93154,29.883893 38.05957,41.161385 18.2187,34.201895 39.12428,68.058717 57.07143,102.999997 14.40574,21.13749 25.24644,46.13756 38.92857,68 29.72605,53.35518 59.98674,106.65332 90,159.94098 26.45937,48.20596 54.44698,96.03168 81,144.05902 -4.65117,32.68759 -64.45314,5.97476 -88.94689,14.89744 -23.86578,-0.26117 -47.7706,0.15512 -71.60733,-1.17305 z M 184.34938,527.8947 c -19.51361,-13.08063 8.31149,-30.70277 12,-46.10608 31.2808,-52.20598 61.11025,-105.12473 92.5,-157.89392 12.89253,-20.25922 22.33972,-44.39675 39.59685,-62 21.23855,14.02985 -9.6652,38.78687 -16.09685,56 -17.05338,29.56941 -33.62749,58.34667 -51.06739,88 -19.83601,34.62751 -40.32583,68.78133 -59.93261,103.5 86.83085,3.67205 174.05549,-0.28606 261,2.5 12.34071,20.13887 -16.27102,17.78975 -28.72941,16.99775 -83.08731,-0.29942 -166.20692,0.8215 -249.27059,-0.99775 z m 441.25,-57.49583 c -29.55093,-48.67999 -56.45677,-98.64667 -85.25,-148.00417 -16.25251,-30.11977 -34.37003,-58.87044 -50.57143,-89.5 -30.13823,45.86408 -54.70989,95.77001 -83.42857,142.56672 -15.72746,26.85346 -30.3999,54.19066 -46.96349,80.55249 -29.32855,9.07163 -2.0569,-32.61753 4.96349,-43.61921 34.63388,-59.99877 69.31734,-120.83188 104.56702,-181 4.37148,-18.28229 25.58833,-37.79199 33.93298,-10.13837 25.67435,43.10845 48.94775,86.22405 74.5,129.44981 19.97662,38.29107 44.66568,74.63287 63,113.74758 -1.63629,6.24777 -9.01856,9.98611 -14.75,5.94515 z"
            id="path8452"
            inkscape:connector-curvature="0"/>
    <sodipodi:namedview
            bordercolor="#666666"
            borderopacity="1"
            gridtolerance="10"
            guidetolerance="10"
            id="namedview4"
            objecttolerance="10"
            pagecolor="#ffffff"
            showgrid="false"
            inkscape:current-layer="svg2"
            inkscape:cx="361.79339"
            inkscape:cy="339.1777"
            inkscape:pageopacity="0"
            inkscape:pageshadow="2"
            inkscape:window-height="1390"
            inkscape:window-maximized="1"
            inkscape:window-width="2535"
            inkscape:window-x="1920"
            inkscape:window-y="25"
            inkscape:zoom="1.1512195"/>
</svg>
